<?xml version="1.0" encoding="utf-8"?>
<!-- Generator: Adobe Illustrator 16.0.0, SVG Export Plug-In . SVG Version: 6.00 Build 0)  -->
<!DOCTYPE svg PUBLIC "-//W3C//DTD SVG 1.1//EN" "http://www.w3.org/Graphics/SVG/1.1/DTD/svg11.dtd">
<svg version="1.1" id="Layer_1" xmlns="http://www.w3.org/2000/svg" xmlns:xlink="http://www.w3.org/1999/xlink" x="0px" y="0px"
	 width="44.667px" height="60.667px" viewBox="0 0 44.667 60.667" enable-background="new 0 0 44.667 60.667" xml:space="preserve">
<g>
	<g>
		<path fill-rule="evenodd" clip-rule="evenodd" fill="#FFFFFF" d="M40.089,37.33c-1.81-1.729-3.619-3.458-5.571-5.324
			c-1.208,1.162-2.371,2.28-3.61,3.473c-0.362-0.311-0.667-0.547-0.943-0.813c-2.074-1.997-4.161-3.981-6.201-6.013
			c-0.605-0.603-1.003-0.697-1.653-0.029c-1.813,1.861-3.7,3.649-5.553,5.472c-0.222,0.218-0.412,0.468-0.749,0.854
			c0.444,0.407,0.847,0.777,1.395,1.281c1.369-1.339,2.664-2.621,3.976-3.886c2.055-1.98,1.445-1.871,3.46-0.008
			c1.35,1.249,2.631,2.571,3.976,3.826c0.604,0.563,0.627,0.994,0.01,1.576c-1.687,1.591-3.342,3.216-4.983,4.854
			c-0.499,0.498-0.916,0.592-1.382,0.011c-0.025-0.031-0.058-0.056-0.085-0.084c-2.331-2.357-2.395-1.513-0.014-3.972
			c0.584-0.604,1.041-0.596,1.587,0.003c0.347,0.38,0.75,0.709,1.231,1.155c0.461-0.426,0.881-0.814,1.31-1.212
			c-1.139-1.173-2.208-2.273-3.372-3.472c-1.152,1.122-2.295,2.17-3.356,3.294c-0.644,0.682-1.095,0.683-1.763,0.013
			c-1.89-1.898-3.842-3.735-5.772-5.593c-0.197-0.189-0.417-0.354-0.732-0.621c-1.987,1.926-3.949,3.827-6.165,5.975
			c-0.091-0.8-0.184-1.243-0.186-1.688c-0.02-4.88-0.039-9.759-0.033-14.639c0.011-8.745,6.716-16.259,15.415-17.297
			c11.107-1.326,20.166,6.713,20.185,17.916c0.008,4.599,0.011,9.199,0.008,13.798c0,0.34-0.063,0.68-0.097,1.019
			C40.312,37.243,40.2,37.287,40.089,37.33z"/>
		<path fill-rule="evenodd" clip-rule="evenodd" fill="#FFFFFF" d="M28.662,43.189c1.021-0.656,1.621-1.271,0.477-2.256
			c-0.143-0.123-0.053-0.786,0.144-0.987c1.542-1.568,3.117-3.104,4.737-4.591c0.196-0.179,0.862-0.152,1.072,0.04
			c1.68,1.539,3.321,3.122,4.934,4.731c0.643,0.643,0.394,2.393-0.52,3.77c-1.249-1.194-2.478-2.374-3.71-3.549
			c-1.3-1.238-1.293-1.229-2.592,0.057c-1.677,1.659-3.369,3.304-5.054,4.953c-1.4,1.37-1.401,1.37-3.021,0.218
			c-0.383,0.348-0.784,0.71-1.241,1.125c0.197,0.28,0.312,0.541,0.508,0.704c0.724,0.604,0.514,1.093-0.062,1.683
			c-1.346,1.378-1.313,1.361-2.707,0.04c-0.753-0.715-0.639-1.192,0.059-1.841c1.523-1.414,3.035-2.848,4.46-4.358
			c0.776-0.822,1.377-0.969,2.095-0.024C28.33,43.02,28.495,43.079,28.662,43.189z"/>
		<path fill-rule="evenodd" clip-rule="evenodd" fill="#FFFFFF" d="M6.059,44.236c-1.248-2.034-1.147-3.12,0.355-4.597
			c1.396-1.372,2.814-2.722,4.19-4.112c0.531-0.537,0.929-0.583,1.487-0.018c1.431,1.448,2.935,2.826,4.354,4.285
			c0.25,0.258,0.446,0.898,0.301,1.155c-0.76,1.342-0.801,1.319,0.511,2.199c1.622-1.053,1.64-1.07,3.095,0.429
			c0.354,0.365,0.884,1.092,0.759,1.29c-0.409,0.651-1.041,1.198-1.687,1.639c-0.154,0.105-0.758-0.296-1.051-0.574
			c-2.085-1.979-4.17-3.961-6.196-6.001c-0.643-0.647-1.051-0.606-1.65,0.014c-1.165,1.206-2.391,2.353-3.596,3.519
			C6.657,43.728,6.361,43.969,6.059,44.236z"/>
		<path fill-rule="evenodd" clip-rule="evenodd" fill="#FFFFFF" d="M33.202,44.967c-1.621,1.081-1.63,1.166-0.379,2.368
			c0.807,0.775,1.611,1.554,2.414,2.334c0.171,0.167,0.491,0.468,0.462,0.508c-0.545,0.766-1.1,1.53-1.723,2.232
			c-0.391,0.44-0.879,0.688-1.44,0.13c-1.247-1.24-2.517-2.457-3.787-3.674c-0.477-0.456-0.466-0.866,0.007-1.322
			c1.727-1.665,3.452-3.331,5.155-5.02c0.498-0.494,0.869-0.38,1.313,0.059c0.995,0.982,2.051,1.905,3.006,2.925
			c0.269,0.287,0.489,0.909,0.359,1.222c-0.28,0.671-0.786,1.257-1.262,1.824c-0.039,0.046-0.602-0.265-0.847-0.49
			C35.366,47.042,34.28,45.991,33.202,44.967z"/>
		<path fill-rule="evenodd" clip-rule="evenodd" fill="#FFFFFF" d="M14.691,54.093c1.29-1.155,2.58-2.311,3.815-3.416
			c-1.218-1.795-1.31-1.805-2.547-0.589c-0.854,0.839-1.737,1.647-2.562,2.514c-0.522,0.548-0.946,0.52-1.539,0.088
			c-2.389-1.737-2.402-1.722-0.272-3.804c0.913-0.893,1.849-1.762,2.742-2.673c0.485-0.495,0.866-0.556,1.393-0.033
			c1.67,1.657,3.367,3.288,5.078,4.903c0.563,0.531,0.584,0.956,0,1.478c-0.654,0.583-1.254,1.227-1.887,1.834
			C17.51,55.74,16.392,55.704,14.691,54.093z"/>
		<path fill-rule="evenodd" clip-rule="evenodd" fill="#FFFFFF" d="M25.542,56.175c-1.798,0-3.399,0-5.327,0
			c0.372-0.518,0.527-0.813,0.754-1.037c1.618-1.596,3.268-3.159,4.872-4.769c0.572-0.574,1.009-0.625,1.574,0.001
			c1.142,1.267,2.328,2.492,3.499,3.738c-1.195,1.422-2.556,1.507-3.895,0.193c-0.565-0.555-1.145-1.093-1.688-1.609
			C22.533,53.932,25.279,54.854,25.542,56.175z"/>
		<path fill-rule="evenodd" clip-rule="evenodd" fill="#FFFFFF" d="M8.386,49.173c-0.549-0.863-1.053-1.524-1.391-2.261
			c-0.108-0.235,0.135-0.756,0.369-1.001c1.076-1.124,2.214-2.188,3.311-3.292c0.443-0.446,0.837-0.562,1.307-0.045
			c0.321,0.354,0.762,0.622,1.003,1.017c0.159,0.261,0.217,0.832,0.052,1.003C11.572,46.104,10.048,47.554,8.386,49.173z"/>
		<path fill-rule="evenodd" clip-rule="evenodd" d="M42.412,30.342c0,3.556,0.254,7.133-0.053,10.662
			c-0.623,7.141-4.553,12.19-10.889,15.255c-10.127,4.9-21.974,0.707-26.784-9.456c-0.883-1.867-1.486-4.038-1.55-6.09
			c-0.214-6.788-0.381-13.598-0.082-20.378C3.393,12.679,7.614,7.363,14.436,4.158c9.874-4.639,21.983-0.115,26.452,9.75
			c1.107,2.445,1.606,5.016,1.64,7.677c0.037,2.918,0.008,5.838,0.008,8.757C42.494,30.342,42.453,30.342,42.412,30.342z
			 M40.089,37.33c0.111-0.043,0.222-0.087,0.333-0.131c0.034-0.339,0.096-0.679,0.097-1.019c0.002-4.599,0-9.199-0.008-13.798
			C40.492,11.18,31.433,3.141,20.326,4.467C11.627,5.505,4.922,13.019,4.911,21.764c-0.006,4.879,0.013,9.759,0.033,14.639
			c0.002,0.444,0.095,0.888,0.186,1.688c2.216-2.147,4.178-4.049,6.165-5.975c0.315,0.267,0.535,0.432,0.732,0.621
			c1.931,1.857,3.883,3.694,5.772,5.593c0.667,0.67,1.119,0.669,1.763-0.013c1.061-1.124,2.204-2.172,3.356-3.294
			c1.164,1.198,2.232,2.299,3.372,3.472c-0.429,0.397-0.849,0.786-1.31,1.212c-0.481-0.446-0.885-0.775-1.231-1.155
			c-0.546-0.599-1.003-0.606-1.587-0.003c-2.381,2.459-2.316,1.614,0.014,3.972c0.028,0.028,0.061,0.053,0.085,0.084
			c0.466,0.581,0.883,0.487,1.382-0.011c1.641-1.639,3.296-3.264,4.983-4.854c0.618-0.582,0.594-1.013-0.01-1.576
			c-1.345-1.255-2.626-2.577-3.976-3.826c-2.015-1.863-1.405-1.973-3.46,0.008c-1.312,1.265-2.607,2.547-3.976,3.886
			c-0.548-0.504-0.951-0.874-1.395-1.281c0.337-0.387,0.527-0.637,0.749-0.854c1.853-1.822,3.741-3.61,5.553-5.472
			c0.65-0.668,1.048-0.574,1.653,0.029c2.04,2.032,4.127,4.016,6.201,6.013c0.276,0.267,0.582,0.503,0.943,0.813
			c1.24-1.192,2.402-2.311,3.61-3.473C36.47,33.872,38.28,35.6,40.089,37.33z M28.662,43.189c-0.167-0.11-0.332-0.169-0.421-0.286
			c-0.718-0.944-1.319-0.798-2.095,0.024c-1.425,1.511-2.937,2.944-4.46,4.358c-0.698,0.648-0.812,1.126-0.059,1.841
			c1.394,1.321,1.361,1.338,2.707-0.04c0.576-0.59,0.786-1.078,0.062-1.683c-0.196-0.163-0.311-0.424-0.508-0.704
			c0.457-0.415,0.858-0.777,1.241-1.125c1.62,1.152,1.621,1.152,3.021-0.218c1.686-1.649,3.377-3.294,5.054-4.953
			c1.299-1.285,1.292-1.295,2.592-0.057c1.233,1.175,2.461,2.354,3.71,3.549c0.914-1.377,1.163-3.127,0.52-3.77
			c-1.613-1.609-3.254-3.192-4.934-4.731c-0.209-0.192-0.876-0.219-1.072-0.04c-1.62,1.486-3.195,3.022-4.737,4.591
			c-0.197,0.201-0.287,0.864-0.144,0.987C30.282,41.918,29.683,42.533,28.662,43.189z M6.059,44.236
			c0.303-0.267,0.599-0.508,0.872-0.772c1.206-1.166,2.431-2.313,3.596-3.519c0.599-0.62,1.007-0.661,1.65-0.014
			c2.026,2.04,4.11,4.021,6.196,6.001c0.293,0.278,0.897,0.68,1.051,0.574c0.646-0.44,1.278-0.987,1.687-1.639
			c0.125-0.198-0.405-0.925-0.759-1.29c-1.455-1.499-1.473-1.481-3.095-0.429c-1.312-0.88-1.271-0.857-0.511-2.199
			c0.145-0.257-0.05-0.897-0.301-1.155c-1.419-1.459-2.923-2.837-4.354-4.285c-0.559-0.565-0.956-0.52-1.487,0.018
			c-1.376,1.391-2.794,2.74-4.19,4.112C4.911,41.116,4.811,42.202,6.059,44.236z M33.202,44.967
			c1.079,1.023,2.165,2.074,3.278,3.096c0.245,0.226,0.808,0.536,0.847,0.49c0.476-0.567,0.981-1.153,1.262-1.824
			c0.13-0.313-0.09-0.935-0.359-1.222c-0.955-1.02-2.011-1.942-3.006-2.925c-0.444-0.438-0.814-0.553-1.313-0.059
			c-1.703,1.688-3.428,3.354-5.155,5.02c-0.473,0.456-0.484,0.866-0.007,1.322c1.27,1.217,2.54,2.434,3.787,3.674
			c0.561,0.558,1.049,0.311,1.44-0.13c0.623-0.702,1.178-1.467,1.723-2.232c0.028-0.04-0.292-0.341-0.462-0.508
			c-0.802-0.78-1.606-1.559-2.414-2.334C31.571,46.133,31.581,46.048,33.202,44.967z M14.691,54.093
			c1.701,1.61,2.819,1.646,4.22,0.302c0.633-0.607,1.233-1.251,1.887-1.834c0.584-0.521,0.563-0.946,0-1.478
			c-1.711-1.615-3.408-3.246-5.078-4.903c-0.527-0.522-0.907-0.462-1.393,0.033c-0.893,0.911-1.829,1.78-2.742,2.673
			c-2.13,2.082-2.117,2.066,0.272,3.804c0.593,0.432,1.017,0.46,1.539-0.088c0.825-0.866,1.708-1.675,2.562-2.514
			c1.237-1.216,1.33-1.206,2.547,0.589C17.271,51.783,15.98,52.938,14.691,54.093z M25.542,56.175
			c-0.262-1.321-3.008-2.243-0.211-3.482c0.543,0.517,1.123,1.055,1.688,1.609c1.339,1.313,2.7,1.229,3.895-0.193
			c-1.171-1.246-2.357-2.472-3.499-3.738c-0.564-0.626-1.002-0.575-1.574-0.001c-1.604,1.609-3.254,3.173-4.872,4.769
			c-0.227,0.224-0.382,0.52-0.754,1.037C22.142,56.175,23.743,56.175,25.542,56.175z M8.386,49.173
			c1.662-1.619,3.186-3.069,4.65-4.579c0.166-0.171,0.107-0.742-0.052-1.003c-0.242-0.395-0.682-0.663-1.003-1.017
			c-0.469-0.517-0.863-0.401-1.307,0.045c-1.097,1.104-2.235,2.168-3.311,3.292c-0.234,0.245-0.477,0.766-0.369,1.001
			C7.333,47.649,7.837,48.31,8.386,49.173z"/>
	</g>
</g>
</svg>
